# xmcd CD database file
#
# Track frame offsets:
#	150
#	12535
#	22210
#	33422
#	45047
#	58160
#	70435
#	83097
#	98885
#	112960
#	125747
#	135860
#	150260
#	163035
#	176097
#	185710
#	196272
#	208272
#	220997
#	228622
#	239482
#	251995
#
# Disc length: 3613 seconds
#
# Revision: 3
# Processed by: cddbd v1.4PL0 Copyright (c) Steve Scherf et al.
# Submitted via: CDex 1.40Beta9
#
DISCID=400e1b16
DTITLE=Johnny Cash - Timeless Inspiration CD 1 of 3
DYEAR=1997
DGENRE=Country
TTITLE0=Wings In The Morning
TTITLE1=What On Earth (will You Do For Heaven's Sake)
TTITLE2=Amazing Grace
TTITLE3=I've Got Jesus In My Soul
TTITLE4=Precious Memories
TTITLE5=Children, Go Where I Send Thee
TTITLE6=In The Sweet By And By
TTITLE7=There Are Strange Things Happening Every Day
TTITLE8=Farther Along
TTITLE9=Softly And Tenderly
TTITLE10=I Was There When It Happened (so I Guess I Ought To Know)
TTITLE11=Just As I Am
TTITLE12=At The Cross
TTITLE13=Have Thine Own Way, Lord
TTITLE14=When The Roll Is Called Up Yonder I'll Be There
TTITLE15=Rock Of Ages
TTITLE16=Gospel Boogie (a Wonderful Time Up There)
TTITLE17=The Old Rugged Cross
TTITLE18=I'm A Newborn Man
TTITLE19=Don't Take Everybody For Your Friend
TTITLE20=O Come, Angel Band
TTITLE21=He's Alive
EXTD=YEAR: 1997 ID3G: 2
EXTT0=
EXTT1=
EXTT2=
EXTT3=
EXTT4=
EXTT5=
EXTT6=
EXTT7=
EXTT8=
EXTT9=
EXTT10=
EXTT11=
EXTT12=
EXTT13=
EXTT14=
EXTT15=
EXTT16=
EXTT17=
EXTT18=
EXTT19=
EXTT20=
EXTT21=
PLAYORDER=
